<svg viewBox="0 0 51 132" fill="none" xmlns="http://www.w3.org/2000/svg">
<path d="M7.45345 83.715C10.5793 89.2674 13.9146 95.1588 17.3006 100.262C17.7164 100.888 18.1526 100.571 18.3207 100.716C18.781 101.112 18.4094 101.731 18.6608 102.069C19.8793 103.709 20.9004 105.3 22.0387 106.919C22.1885 107.132 22.3345 107.291 22.4773 107.406L22.2279 106.911C23.1776 107.86 24.0807 106.672 24.6765 107.117C26.0148 108.104 23.5167 107.899 23.3174 108.628C24.1527 110.103 25.1116 111.533 26.0791 112.925C26.0779 112.47 26.0701 112.009 26.057 111.558C26.4212 112.193 27.1905 112.974 27.1532 111.628C27.4142 111.801 27.6904 111.942 27.9502 112.118C27.276 112.545 27.802 113.721 27.439 114.041C27.0748 114.362 26.8379 113.662 26.8044 113.686C26.3024 114.002 28.3847 116.278 28.5453 116.432C28.9629 116.85 29.6008 115.953 29.7682 116.404C30.0609 117.184 28.0365 117.642 30.9081 117.369C30.3547 118.164 30.7712 117.991 31.0884 118.451C31.1298 118.512 30.663 118.7 30.6668 118.735C30.7456 119.658 31.2516 118.64 31.2979 118.62C32.0877 118.281 32.1847 119.255 32.349 119.383C34.3914 120.986 35.8426 122.156 37.2424 124.228C37.5459 124.677 38.007 126.273 38.3698 126.662C38.7297 127.044 39.1536 126.521 39.5392 126.623C38.8741 127.246 38.6152 127.654 38.7767 127.96C38.8214 128.079 39.05 128.354 39.1294 128.453C39.3939 128.715 39.8853 128.86 40.5197 128.797C40.3298 129.953 40.7554 129.214 41.3939 129.762C41.9251 130.218 42.5918 131.817 43.5329 130.962C42.8013 130.821 43.035 130.35 42.3223 129.74C42.1673 129.637 40.1156 128.625 40.0247 127.571C39.9969 127.536 39.9169 127.44 39.9012 127.398C39.9605 127.193 40.0836 127.039 40.3028 126.976C40.4387 126.938 40.5389 126.971 40.6138 127.043L40.5921 127.012C40.8665 127.149 41.1296 127.691 41.2061 127.64C41.7011 127.222 41.7609 126.366 41.3735 126.352C41.3466 126.499 41.3442 126.667 41.3474 126.83C41.0705 126.842 40.9905 126.724 41.0186 126.592L41.1494 126.775C41.3408 126.343 42.5931 126.018 40.5447 126.367C40.2162 126.425 39.9374 126.61 39.5626 126.621C39.6721 126.528 40.0713 126.545 40.0491 126.365C40.0249 126.18 39.2873 126.191 39.758 125.892C40.4406 125.451 40.4927 126.245 40.558 126.271C40.5539 126.273 40.5498 126.276 40.5457 126.279C41.1471 126.512 40.7313 125.592 40.7753 125.513C41.0778 125.004 41.5216 125.015 41.6685 124.399C41.7535 124.05 41.3061 123.508 41.2524 123.247C41.202 122.987 41.7251 123.153 41.7166 122.963C41.7089 122.776 41.3535 122.729 41.3418 122.507C41.338 122.412 41.7148 122.212 41.7083 122.169C41.6429 121.705 41.0014 122.382 40.8575 122.005C40.7663 121.762 41.0732 120.601 41.5779 121.01C41.5134 120.713 41.4361 120.442 41.3562 120.157C41.5547 120.255 41.7198 120.376 41.9345 120.457C41.4991 120.086 42.0198 119.519 41.9057 119.2C41.7888 118.875 40.8802 119.042 41.0743 118.51C41.4907 117.384 42.0644 119.291 42.3234 119.425C42.4248 119.477 42.8514 118.83 42.8412 118.771C42.7958 118.51 42.2247 118.491 42.152 118.314C41.8927 117.674 42.2595 117 42.0617 116.37C41.3865 114.23 40.4271 111.713 39.6147 109.853C39.3099 109.159 38.4576 109.095 38.3198 108.783C38.0017 108.057 38.5238 107.684 38.2434 107.054C37.8298 106.121 36.6993 105.077 36.2231 104.36C35.8916 103.86 36.221 103.119 36.1688 102.973C35.9382 102.315 35.67 101.625 35.3884 100.93C35.327 100.826 35.1862 100.49 35.1166 100.391C34.3677 98.9097 33.5296 97.4507 32.903 96.3553C32.4631 95.5861 31.6553 95.5713 31.5818 95.4047C31.2626 94.687 31.8774 94.57 31.5053 94.0526C31.3042 93.7724 30.7843 94.0056 30.742 93.9772C30.3776 93.7256 30.9742 93.2815 30.8357 92.9988C30.0388 91.3723 28.7372 90.1354 27.7676 88.6536C27.6968 88.5463 27.4216 88.7244 27.3933 88.6444C27.279 88.2971 27.8068 88.1742 27.6475 87.8354C27.3187 87.1304 26.8355 86.4907 26.3599 85.8245C26.3126 85.7581 25.9326 85.9432 25.837 85.784C25.7414 85.6245 26.0113 85.2984 25.8427 85.0604C25.404 84.4408 24.6067 84.0387 24.1748 83.3662C24.1036 83.2542 24.4564 82.8554 24.3488 82.6858C24.0119 82.1537 23.1516 81.6075 22.8623 81.1516C21.9272 79.6744 21.3556 78.1262 20.5523 76.717C20.3604 76.3827 19.785 76.3219 19.6776 76.1554C19.4368 75.7796 19.9906 75.8564 19.7683 75.4593C17.9783 72.2541 16.0337 69.0683 14.8697 66.0723C14.4089 64.9184 14.4627 63.3997 14.3358 63.1473C14.2725 63.0706 13.6674 63.1068 13.656 63.1852C13.6463 63.2865 13.8277 63.5123 13.9641 63.812C14.2107 63.6729 14.4625 63.5296 14.598 63.2094C14.8206 62.6819 14.2709 61.8168 14.5095 61.2634C14.7483 60.7127 15.558 60.7101 15.8741 60.1216C16.1338 59.6374 16.0905 58.8077 16.3715 58.2959C17.1634 56.8467 18.0322 55.4854 18.7789 54.587C21.6123 50.8655 23.9357 47.1183 25.9169 43.1473C26.9297 41.1102 28.3292 39.052 28.916 36.7058C28.9708 36.4851 28.1706 36.3728 28.6707 35.8683C28.9401 35.5981 29.7538 35.4978 30.2394 34.7932C30.9061 33.8253 31.5148 32.8065 32.0978 31.7659C34.1137 28.1831 35.7612 24.2718 38.1717 21.056C42.9316 14.7047 51.5678 11.5555 49.794 1.7318C49.712 1.24364 48.1892 0.184116 47.6586 -0.000100315C47.8276 0.382106 48.0605 0.798254 48.2635 1.21693C46.3311 -0.0676333 46.8182 0.282083 46.4047 1.11678C46.15 1.63492 45.6659 0.664548 45.2598 0.721056C44.7344 0.789507 42.6944 1.53373 44.1169 2.19963C43.8383 2.12542 43.5724 2.05327 43.3004 1.98006C42.2978 2.88795 41.2108 3.68578 40.0772 4.47306C39.8809 4.60836 39.4897 4.33062 39.2886 4.47335C38.7464 4.85405 38.7043 5.44337 38.2848 5.93621C38.0572 6.20437 37.58 5.91799 37.3381 6.31265C37.0974 6.70667 37.7111 7.1344 36.6845 7.17007C36.1594 6.29011 35.6505 8.17232 35.2318 8.66851C35.1717 8.74044 34.0369 8.88726 33.8808 9.28006C33.7228 9.67201 33.807 10.4934 33.1948 10.8408C32.9067 11.0047 32.263 10.7809 32.0495 11.025C31.8995 11.1967 32.2268 11.7512 32.0846 12.0017C31.9422 12.2521 31.1989 12.4906 31.1274 12.5817C30.8699 12.9032 31.4641 12.7601 31.3232 13.0036C30.6393 14.1733 29.9468 15.5957 28.9801 16.5465C28.861 16.6646 28.585 16.207 28.5593 16.2165C27.4473 16.8142 28.3018 16.6687 28.496 17.1581C28.6846 17.6286 27.3205 19.2744 26.6132 18.8212C27.4577 19.4528 26.5238 19.4082 26.4313 19.4925C26.0695 19.8247 26.8848 20.2427 26.3933 20.4773C26.2141 20.563 25.8817 19.948 25.7963 20.1107C25.5864 20.5115 26.1911 21.3923 25.9468 21.9455C25.888 22.0795 25.4968 21.8726 25.3662 22.0992C25.236 22.3254 25.1005 23.5167 24.5956 22.5914C24.8571 23.5517 24.4491 23.429 24.0494 24.0777C23.9518 24.2383 24.4085 24.8373 24.0015 25.0573C23.8641 25.1309 23.2936 24.7529 23.1772 24.9205C23.0157 25.1516 23.068 25.5048 23.0822 25.8568C23.0875 26.116 23.0717 26.3778 22.9419 26.5985C22.3629 27.5869 21.2871 28.3425 20.8005 29.4416C20.6688 29.7405 21.2933 30.04 21.0545 30.4432C21.0176 30.5014 20.2136 30.6612 20.0887 30.9654C20.0131 31.1484 19.8328 32.2244 19.7542 32.4141C19.6222 32.7273 19.0259 32.4261 19.0391 32.651C19.0765 33.3006 20.1335 33.456 18.6582 33.2907C19.178 33.8614 18.9182 34.139 19.6323 34.7226C18.6666 34.3781 19.3361 35.1254 18.8296 35.3055C18.3227 35.4858 16.4907 34.7575 18.2131 35.9431C17.8938 35.9765 17.0861 36.4587 16.9848 36.5622C16.6901 36.8683 17.2982 36.9835 17.0672 37.2085C17.027 37.2487 16.722 36.9909 16.5685 37.3129C16.4684 37.5247 15.5948 38.9804 15.5872 39.0947C15.5032 40.4019 16.2527 38.7659 16.7475 38.7785C16.6753 38.6818 16.6026 38.5853 16.5331 38.4867C16.6443 37.9531 17.2494 38.671 17.3032 38.9776C17.357 39.2839 16.7909 39.4424 16.938 39.7609C17.0124 39.9201 17.9527 40.4342 17.9965 40.1184C18.1122 40.5571 18.6324 40.3787 18.8306 40.6468C19.0478 40.9413 18.3969 42.1862 17.8929 41.8795C18.0132 41.6476 18.2024 41.3822 18.3218 41.1441C17.6331 40.3107 14.1094 39.3528 14.7895 40.9017C15.2777 42.0279 16.5683 41.4845 14.9747 42.4263C15.0747 42.1902 15.1076 41.9578 15.1927 41.7411C14.5544 41.3126 15.0736 42.0752 14.7635 42.1091C14.6132 42.1237 14.4552 41.3522 14.0391 41.6743C14.7439 42.6176 13.634 42.3064 13.245 42.8955C13.5164 42.8334 13.7855 42.773 14.0569 42.7103C14.0879 44.152 15.8049 41.9297 14.929 44.1475C15.1113 43.9267 15.2516 43.6875 15.4493 43.4756C15.7166 43.8075 16.8354 44.2527 16.9807 44.4908C17.3624 45.1158 16.7701 45.3113 16.6065 45.6753C16.5341 45.8339 16.8611 45.9154 16.8549 45.9286C16.7569 46.1481 16.3899 45.8525 16.2524 46.0121C16.0809 46.2117 16.0521 47.0976 15.9422 47.1714C15.6589 47.3653 15.1689 46.4208 15.0941 46.4092C14.6097 46.3342 14.6958 46.8838 14.2166 46.5461C15.0989 45.9338 16.189 43.2533 13.9891 44.9014C13.5737 43.7947 12.3631 43.269 11.7325 44.0593C11.2106 44.7091 11.9397 44.544 12.1855 45.2216C12.2163 45.3079 11.8335 46.3946 11.4628 46.2169C12.2692 46.6942 12.7574 47.4587 13.6996 47.7846C13.8389 47.8313 14.0468 47.4137 14.6066 47.9754C14.8882 48.257 15.4672 48.9209 15.9022 49.1631C15.5602 49.0546 15.1801 48.9252 14.8258 48.8079C14.3538 49.3365 14.6054 49.6273 14.9229 50.3086C14.7106 50.1426 13.9746 49.2147 13.9549 49.8572C13.9563 49.8916 14.2783 50.1394 14.2899 50.4797C14.3077 51.1684 14.34 51.3412 15.569 51.6543C15.3355 51.7669 15.1815 51.8905 15.0779 52.0231C14.7119 52.4876 15.2465 53.1503 14.5717 53.6927C13.3426 52.765 13.8622 52.5913 14.6161 51.9879C14.3364 51.7516 14.0487 51.5339 13.7692 51.2912C13.7483 52.829 14.0442 52.2215 13.0208 52.4859C12.7674 52.5505 12.4591 53.5205 11.7129 52.737C11.5365 52.5493 11.8749 52.0029 11.5086 51.8766C11.4369 51.8499 10.8883 52.4599 10.9449 52.5698C11.6294 53.9084 13.0561 52.9262 11.6419 54.8108C11.6027 54.8638 11.1898 54.6949 11.0801 54.7844C10.8747 54.9543 11.3438 55.1698 11.1484 55.314C10.9533 55.4573 10.1957 55.4562 10.6602 56.0046C11.514 56.9865 12.6498 56.0161 12.3397 55.2298C13.7773 55.6497 12.2419 59.4702 12.0696 59.7066C11.1547 60.5996 12.0936 58.9089 11.7378 58.6727C11.5839 58.5738 9.44962 57.7918 11.0046 57.8504C11.4632 57.8732 11.7874 58.6385 12.1394 58.3907C12.4913 58.1454 11.8173 58.0361 11.783 57.995C11.6654 57.8546 12.0365 57.5894 11.9665 57.5101C10.9226 56.2588 8.87612 55.5048 11.4764 57.6576C10.635 57.8143 9.94084 56.4176 9.27335 56.7673C8.45665 57.2089 9.25206 58.0565 9.26683 58.1514C9.43409 59.3245 8.41188 57.6747 8.4434 59.0547C8.46897 59.8168 9.73546 58.3739 9.12469 59.8761C8.62686 61.1396 8.35148 60.2867 7.18025 60.0176C6.90674 59.9543 6.34632 60.5885 6.78104 59.6237C7.08683 59.6907 7.49483 59.7636 7.78843 59.7899C7.64849 59.4822 6.30488 58.581 6.29922 58.429C6.27414 57.7004 7.02768 58.0039 6.2646 57.3045C7.15006 57.9257 6.71468 57.2763 6.98247 57.187C7.97042 56.8623 7.94496 57.768 7.49245 56.0419C7.87764 56.3986 8.26514 56.7271 8.65631 57.0684C8.73278 56.915 8.80925 56.765 8.88721 56.6125C7.97424 55.9868 8.4561 55.1698 7.13341 55.5462C7.23043 54.4818 7.62425 54.1852 8.47753 54.3237C8.64054 54.3506 8.76076 54.2369 8.84761 54.0825C9.04832 54.2103 9.69461 54.5478 9.7872 54.5596C10.6004 54.665 9.52895 53.7548 9.00581 53.6516C9.03602 53.5282 9.05227 53.4261 9.05577 53.3894C9.07833 53.1544 8.46841 53.348 8.40078 53.116C8.37806 53.0389 8.74665 52.513 8.58346 52.4166C7.53367 51.8021 7.81021 53.1629 8.18432 50.9044C9.18169 51.3877 8.51152 52.1463 9.6781 52.4601C10.9193 52.8136 9.67172 51.5429 11.0931 52.1866C10.8894 52.0265 10.7117 51.9074 10.4754 51.7334C11.4672 51.3493 10.3604 50.6951 10.2526 50.317C10.1465 49.9625 10.4263 49.2996 10.7281 49.0098C10.9421 48.8129 11.1652 48.8265 11.2194 49.3501C11.2296 49.5214 11.2209 49.7475 11.1979 50.0308C11.3593 49.911 11.5052 49.777 11.6526 49.6502C11.7379 49.5791 11.8241 49.5082 11.9154 49.4412C10.0381 48.0721 10.7081 48.7391 11.1696 47.4219C11.2698 47.1321 10.476 46.4824 11.6455 46.9137C10.6327 46.2896 11.7169 45.9524 11.6409 45.8039C11.1416 44.8559 8.99024 45.7459 10.5954 47.1208C9.73426 46.9336 10.6301 47.5412 10.3066 47.7617C9.97775 47.9856 9.77267 48.0236 9.78662 48.3576C9.77908 48.5187 9.80578 48.7428 9.88578 49.0541C9.36391 49.0503 9.41734 48.6461 9.56108 48.2013C9.70744 47.6194 9.99224 46.9871 8.61615 47.3843C8.56558 47.3984 8.51287 47.4161 8.45815 47.4373C6.00053 48.6344 2.01496 55.7107 0.564587 59.9781C-0.335506 63.2326 0.10535 64.6835 0.129673 65.5657C1.29005 72.568 2.48029 74.3935 4.5517 78.5171C4.75002 78.9039 6.23194 81.8396 7.04377 80.6105C7.15685 80.4312 6.92507 78.9783 8.39155 79.5297C7.74604 79.6071 7.74271 80.4122 7.71703 80.496C7.1054 82.3573 6.42727 81.8775 7.45345 83.715ZM20.5556 83.1532C18.9469 81.0172 20.6891 82.2545 22.0996 80.7824C22.2759 81.0702 22.4528 81.3585 22.6315 81.6491C22.4799 81.6348 22.3292 81.6214 22.1776 81.6072C22.1774 81.6069 22.1772 81.6065 22.177 81.6062C21.6358 82.1206 21.0968 82.639 20.5556 83.1532ZM42.8987 120.818C43.0743 120.6 43.2525 120.386 43.4192 120.163C43.1755 119.885 42.9366 119.614 42.693 119.337C42.56 119.46 42.4244 119.581 42.2913 119.703C42.5008 120.069 42.7119 120.437 42.8987 120.818ZM12.7455 55.0356C12.3022 54.302 13.4314 54.9058 13.1868 54.1021C13.9927 54.6034 14.78 55.0966 15.5825 55.5853C15.2678 55.8987 14.8985 55.8343 14.9053 56.362C14.6534 56.1828 14.4011 56.0006 14.1483 55.8195C14.2419 55.7742 14.3455 55.7298 14.4316 55.6844C13.721 55.1964 13.2625 55.8651 12.743 55.0362C12.7438 55.036 12.7447 55.0358 12.7455 55.0356ZM15.4466 51.1927C15.5014 50.8957 15.7233 49.7332 16.1286 49.8296C17.5215 50.1412 15.0925 52.2456 17.3477 51.0065C17.497 51.1187 17.6548 51.2113 17.8083 51.3138C17.6292 51.6999 17.4426 52.0779 17.2467 52.4582C16.6517 52.0257 16.0433 51.6294 15.4466 51.1927ZM15.8797 74.8506C15.5971 74.5549 15.2476 72.5672 16.2841 72.7236C16.5817 72.7606 15.9268 74.0877 16.1266 74.3444C16.2557 74.5112 16.7234 73.9902 16.7075 74.4676C16.4435 74.5911 16.155 74.7359 15.8809 74.8487C15.8805 74.8493 15.8801 74.85 15.8797 74.8506ZM12.8828 77.3725C12.7771 76.9379 12.7005 76.4876 12.6092 76.0567C13.416 75.968 13.2869 76.7374 14.2321 76.2599C14.2461 76.1188 14.2607 75.9796 14.2755 75.8394C14.03 75.8726 13.7849 75.907 13.54 75.9411C13.8712 75.3464 14.2307 75.4121 13.7588 74.8863C15.367 74.498 16.1418 74.1326 15.2826 75.9283C15.9365 75.3164 18.5133 74.1358 17.0512 75.6647C16.7804 75.9499 16.3231 75.6428 16.2663 75.6631C15.5789 75.9547 15.3002 76.4296 14.6464 76.697C14.3509 76.8185 14.204 76.5428 13.796 76.715C13.5972 76.7995 13.2045 77.3567 12.8828 77.3725ZM16.5826 76.2782C16.9128 75.947 18.0577 75.8083 18.0583 76.2501C18.0625 76.9412 16.7087 76.6084 16.5826 76.2782ZM42.899 120.82C42.8989 120.819 42.8988 120.819 42.8987 120.818C42.898 120.819 42.8974 120.819 42.8967 120.82C42.8975 120.82 42.8982 120.82 42.899 120.82ZM15.1343 52.5742C15.3702 52.5697 15.5283 52.48 15.6894 52.4467C15.8652 52.384 16.0405 52.3737 16.2757 52.5572C16.2682 52.3576 16.2633 52.157 16.2555 51.9566C16.4056 52.0609 16.5552 52.1666 16.7037 52.2699C16.6134 52.5027 16.5237 52.7336 16.4343 52.9628C16.3851 53.1347 16.3361 53.3123 16.2889 53.4932C15.9011 53.1922 15.5126 52.8891 15.1343 52.5742ZM17.5865 48.1301C17.8546 47.6011 18.2816 48.4652 18.6875 48.5727C19.0943 48.6792 19.1069 48.0581 19.5553 48.4201C19.3865 48.7249 19.2057 49.0472 19.0305 49.3553C18.559 48.9366 18.0604 48.5385 17.5871 48.1292C17.5869 48.1295 17.5867 48.1298 17.5865 48.1301ZM26.7048 92.1686C26.3476 91.9193 25.8886 92.3816 26.1219 91.3304C26.1222 91.3309 26.1225 91.3314 26.1228 91.3319C26.9484 91.7063 27.837 92.298 27.8276 93.2628C26.9977 93.1686 27.2653 92.5626 26.7048 92.1686ZM13.9178 56.9524C13.3975 56.8925 13.3011 56.0748 13.7898 56.1286C14.5741 56.2218 14.702 57.0492 13.9178 56.9524ZM30.5348 108.424C29.4186 109.643 27.3563 109.372 27.5058 107.95C27.5197 107.828 28.2991 108.322 28.4699 107.983C28.4867 107.95 28.2678 107.578 28.4167 107.392C28.5654 107.205 29.0625 107.09 29.1777 106.846C29.3789 106.419 28.4752 106.087 28.8152 105.681C28.8611 105.627 29.6426 105.726 29.6764 105.738C30.2252 105.959 29.6162 106.706 29.6398 106.769C29.7605 107.092 30.3551 106.752 30.5373 106.761C30.8803 106.779 30.7327 107.168 30.7617 107.176C31.5261 107.383 30.8572 106.39 31.0117 106.138C31.4284 105.466 32.1541 105.559 32.0581 104.473C32.0488 104.37 31.5235 103.339 32.8326 104.335C33.0727 101.078 34.254 105.244 34.1531 105.814C34.1006 106.078 33.3726 106.068 33.1657 106.313C32.6941 106.877 32.8127 107.389 31.9445 107.763C30.118 108.548 30.986 107.36 30.4844 107.087C30.1172 107.318 29.7464 107.517 29.4061 107.783C29.8552 107.409 30.6197 108.336 30.5384 108.422C30.5372 108.423 30.536 108.423 30.5348 108.424ZM29.18 100.686C28.3318 100.408 29.4416 99.8241 28.5179 99.6543C29.2272 98.6298 29.6879 99.5832 29.8049 99.6611C30.3311 100.011 31.3888 99.3951 31.3466 100.084C30.6188 100.268 29.9028 100.489 29.18 100.686ZM32.3116 105.7C32.6984 105.036 33.022 105.74 33.1451 105.715C34.4503 105.464 33.2374 103.496 32.3116 105.7ZM12.4714 73.8211C12.3309 73.6438 12.9347 73.4883 13.005 73.2337C13.0752 72.9771 12.3184 72.6375 12.6601 72.4745C13.0095 72.3275 14.4197 72.9272 14.0701 71.7743C14.2784 71.7149 14.4136 71.6308 14.594 71.5615C14.7453 71.8474 14.9021 72.132 15.0596 72.4228C14.433 72.5446 13.7757 72.6752 13.1698 72.7903C12.8215 73.1784 13.4256 72.9862 13.43 72.9947C13.4294 72.995 13.4288 72.9953 13.4282 72.9956C13.5438 73.3259 12.7883 74.2215 12.4714 73.8211ZM22.848 88.0287C21.5778 88.8683 22.7629 87.5413 22.8135 87.259C22.8634 86.9769 22.228 87.012 22.8468 86.7711C23.4134 86.8381 22.9897 87.9349 22.8463 88.0297C22.8468 88.0293 22.8474 88.029 22.848 88.0287ZM27.385 97.5672C27.4244 96.9025 27.8099 96.7781 27.0767 96.4198C27.4072 96.2564 27.7446 96.089 28.0702 95.9286C28.3506 96.392 27.4101 96.898 28.0952 97.2206C28.208 97.2733 28.8342 96.6545 28.83 97.1919C28.3691 97.3046 27.8642 97.4413 27.385 97.5672ZM27.1674 94.5054C27.4439 95.0838 25.1366 97.0283 25.6973 95.3385C25.7817 95.0872 26.96 94.0706 27.1674 94.5054ZM15.1885 78.9392C14.5887 78.0561 15.6018 78.8695 16.1383 78.8858C15.2349 76.5556 16.1638 79.1877 17.6132 78.6531C17.388 79.1305 16.8121 80.1142 16.2689 79.7025C16.0432 79.531 16.4828 79.3869 16.4735 79.3746C16.1326 79.0055 15.5185 79.4242 15.1885 78.9392ZM29.6838 101.725C29.683 101.678 30.1623 101.482 30.1873 101.317C30.2111 101.152 29.7528 101.072 30.0129 100.892C30.2739 100.709 30.7818 101.108 30.6701 101.381C30.5562 101.655 29.6936 102.146 29.6838 101.725ZM26.5199 98.7481C26.5684 98.0964 28.6475 97.9074 28.7003 98.0166C29.1352 98.965 27.0213 98.4174 26.5199 98.7481ZM13.6528 82.7143C13.8269 81.0979 15.7543 81.0948 17.0258 81.2896C16.9036 81.4837 16.7828 81.6806 16.6619 81.8732C17.4857 80.8329 18.1134 79.4874 18.1339 81.6564C17.3604 80.9105 17.5111 81.8253 17.4546 81.8667C15.5529 83.1119 15.6893 81.2534 13.6534 82.7153C13.6532 82.715 13.653 82.7146 13.6528 82.7143ZM31.0906 103.2C31.3118 103.707 31.5706 105.186 30.3882 104.992C30.6183 104.391 30.8538 103.796 31.0906 103.2ZM5.44971 62.0045C5.31903 61.7761 5.25027 61.545 5.23241 61.3137C5.13877 60.9399 5.24718 60.6143 5.3934 60.2237C6.02806 60.9693 6.21938 60.6615 6.46327 60.5521C6.83104 60.3852 6.61995 60.9957 6.67334 61.0132C7.42712 61.2243 7.65588 60.8711 7.37906 61.7508C7.70401 61.6075 8.03065 61.4701 8.35441 61.3328C8.25676 61.7312 8.37351 61.9991 8.58332 62.2724C8.74538 62.4071 8.95974 62.5333 9.19723 62.6694C7.74887 62.1535 8.59979 62.6184 7.83959 63.0363C7.45651 63.3043 5.64883 62.5024 5.45015 62.0019C5.45 62.0028 5.44986 62.0036 5.44971 62.0045ZM12.7123 81.6985C12.8844 81.4473 13.1429 81.1523 13.3501 80.8833C13.305 80.7446 13.257 80.6078 13.2125 80.4698C12.9932 80.5748 12.7656 80.6878 12.5528 80.7856C12.3987 80.6579 12.7283 80.5541 12.7284 80.4901C12.7272 80.4908 12.7261 80.4914 12.725 80.4921C12.7232 79.5837 12.5171 79.3201 11.5574 79.1409C12.2061 78.7783 12.8548 78.4157 13.5035 78.0531C13.5094 78.2089 13.5179 78.3655 13.5263 78.5213C13.2146 78.7818 12.9031 79.0431 12.592 79.3045C12.8638 79.3382 13.1356 79.3747 13.405 79.4036C13.3432 79.5858 13.2881 79.795 13.2218 79.9613C15.3435 79.4905 13.4006 78.9274 14.1423 78.485C14.6243 78.2134 15.3186 79.4856 15.0966 79.8653C15.0635 79.9201 13.5614 80.4102 14.5314 80.4814C14.6847 80.4933 17.5966 78.8452 15.5376 80.6982C15.2462 80.9622 13.3014 81.752 12.7123 81.6985ZM9.12193 77.4827C11.4026 77.212 7.95074 75.5407 10.1315 75.8939C10.8256 75.1018 10.8483 75.1728 11.7949 75.0953C11.8794 75.0876 11.9976 74.7331 12.0384 74.7366C12.6259 74.8188 12.6011 75.3135 13.3743 74.9028C13.378 75.0086 13.3839 75.1073 13.3882 75.2137C12.4719 75.251 12.2874 76.0791 11.7915 76.624C11.5674 76.872 11.3601 76.6939 11.1621 76.9076C11.0899 76.986 11.4379 77.2048 11.1917 77.3564C10.6329 77.696 9.74969 77.9213 9.14098 77.8081C9.1404 77.8084 9.13983 77.8087 9.13926 77.809C9.12958 77.7009 9.12947 77.5911 9.12193 77.4827ZM19.6265 91.9954C20.7139 91.5079 21.2953 91.8191 21.2328 90.5895C21.4603 90.5157 21.687 90.4444 21.9146 90.3707C21.9912 90.5384 22.0652 90.7015 22.1445 90.8701C19.4403 93.1393 23.3384 91.9918 20.8821 92.7023C20.615 92.7793 20.6499 92.253 20.2437 92.9952C20.2428 92.9951 20.242 92.9949 20.2411 92.9947C20.1262 92.3668 20.4474 92.0873 19.6265 91.9954ZM18.2752 88.1353C19.703 85.6725 20.4461 89.0572 19.5976 88.9257C19.5207 88.9138 19.2537 87.4264 18.2752 88.1353ZM22.0784 98.7372C21.7298 98.2298 22.8654 97.5113 23.3137 97.3192C23.7634 97.1264 23.558 97.7437 23.6517 97.7523C23.96 97.7793 23.9101 97.3664 24.326 97.3924C24.4617 97.4013 25.4205 98.089 25.3954 98.1613C25.2565 98.5602 24.0974 98.7739 24.0275 98.9058C23.7972 99.3358 24.4692 99.3435 23.9972 99.704C22.9908 100.474 23.8073 99.2542 23.7703 99.1488C23.6558 98.8349 23.0594 99.2175 22.8126 99.077C22.566 98.9363 22.6945 98.6763 22.5414 98.515C22.4904 98.4615 22.0981 98.7618 22.0784 98.7372ZM23.4829 95.5379C22.9374 96.6112 21.1854 95.8262 21.2945 95.5449C21.6216 94.7116 23.7424 95.0235 23.4829 95.5379ZM12.9636 77.7743C12.607 78.6506 11.4106 77.7258 11.4822 77.2343C11.7848 77.1506 13.0883 77.4776 12.9636 77.7743ZM13.8391 83.0267C13.7631 82.4398 15.5613 82.2283 15.7662 82.63C14.9584 83.4107 15.0185 83.0852 14.8306 82.8523C14.6428 82.6201 13.8977 83.4823 13.8391 83.0267ZM26.4582 103.905C26.3872 103.81 26.2464 101.733 27.1046 102.486C27.1684 102.54 27.681 103.776 27.5805 103.942C27.3814 104.282 26.6476 104.143 26.4582 103.905ZM13.775 86.102C14.4404 85.3722 14.286 85.1354 15.3751 84.7998C15.3753 84.8002 15.3755 84.8005 15.3757 84.8008C15.2994 84.0032 13.3278 85.1236 13.2888 84.9617C13.1543 84.3963 14.8125 84.0326 15.0942 83.4653C15.0727 84.413 15.8944 83.6627 16.2617 84.15C16.3434 84.2593 16.0624 85.0613 15.7551 85.3372C15.4474 85.6127 14.2591 85.9894 13.775 86.102ZM27.3786 106.27C26.7756 105.831 27.9239 104.664 28.5151 105.366C28.8057 105.709 27.7444 106.533 27.3786 106.27ZM11.4982 47.4143C11.7783 47.717 12.055 48.0216 12.3273 48.3289C12.5368 48.1915 12.7504 48.0504 12.9621 47.9108C12.7545 47.9936 12.5464 48.08 12.3397 48.1634C12.4673 47.722 11.9705 47.1509 11.4988 47.4133C11.4986 47.4136 11.4984 47.4139 11.4982 47.4143ZM19.5793 34.0267C19.3559 33.6543 20.5779 33.9549 20.6309 34.0463C21.0247 34.7297 19.8893 34.5429 19.5793 34.0267ZM9.35336 78.7533C8.8465 78.1752 10.8007 77.696 11.1369 78.0305C10.6757 77.9638 9.64245 79.0819 9.35336 78.7533ZM16.7475 38.7785C16.855 38.9225 16.9623 39.0669 17.0658 39.2177C16.9901 38.8984 16.8784 38.7818 16.7475 38.7785ZM24.8149 104.487C24.6297 104.462 24.1215 103.814 24.227 103.626C24.4511 103.235 25.7004 103.259 25.5982 103.751C25.5882 103.805 24.9993 104.51 24.814 104.485C24.8143 104.486 24.8146 104.486 24.8149 104.487ZM11.4178 46.1892C11.4326 46.2006 11.4478 46.2098 11.4628 46.2169C11.4478 46.208 11.433 46.1979 11.4178 46.1892ZM26.5426 18.7669C26.5653 18.7873 26.5889 18.8058 26.6132 18.8212C26.5906 18.8042 26.5678 18.7849 26.5426 18.7669ZM20.502 100.309C18.7661 101.012 19.2978 99.9724 20.3392 99.9352C20.3949 99.9348 20.4654 100.253 20.502 100.309Z" fill="black"/>
</svg>
