<svg viewBox="0 0 51 132" fill="none" xmlns="http://www.w3.org/2000/svg">
<path d="M42.5768 83.715C39.4509 89.2674 36.1157 95.1588 32.7297 100.262C32.3139 100.888 31.8777 100.571 31.7096 100.716C31.2493 101.112 31.6209 101.731 31.3695 102.069C30.151 103.709 29.1298 105.3 27.9915 106.919C27.8418 107.132 27.6958 107.291 27.553 107.406L27.8023 106.911C26.8526 107.86 25.9496 106.672 25.3538 107.117C24.0154 108.104 26.5136 107.899 26.7129 108.628C25.8776 110.103 24.9186 111.533 23.9511 112.925C23.9524 112.47 23.9602 112.009 23.9733 111.558C23.6091 112.193 22.8398 112.974 22.8771 111.628C22.6161 111.801 22.3399 111.942 22.0801 112.118C22.7542 112.545 22.2283 113.721 22.5912 114.041C22.9555 114.362 23.1924 113.662 23.2259 113.686C23.7278 114.002 21.6456 116.278 21.485 116.432C21.0674 116.85 20.4294 115.953 20.262 116.404C19.9693 117.184 21.9938 117.642 19.1222 117.369C19.6755 118.164 19.2591 117.991 18.9419 118.451C18.9005 118.512 19.3673 118.7 19.3635 118.735C19.2847 119.658 18.7787 118.64 18.7323 118.62C17.9426 118.281 17.8455 119.255 17.6813 119.383C15.6388 120.986 14.1877 122.156 12.7879 124.228C12.4844 124.677 12.0233 126.273 11.6605 126.662C11.3006 127.044 10.8767 126.521 10.491 126.623C11.1562 127.246 11.4151 127.654 11.2536 127.96C11.2089 128.079 10.9803 128.354 10.9009 128.453C10.6364 128.715 10.1449 128.86 9.51057 128.797C9.7005 129.953 9.27488 129.214 8.63638 129.762C8.10518 130.218 7.43848 131.817 6.49737 130.962C7.22899 130.821 6.99523 130.35 7.70793 129.74C7.86302 129.637 9.91462 128.625 10.0055 127.571C10.0333 127.536 10.1134 127.44 10.129 127.398C10.0698 127.193 9.94662 127.039 9.72749 126.976C9.59161 126.938 9.49136 126.971 9.41647 127.043L9.43815 127.012C9.1638 127.149 8.90068 127.691 8.82418 127.64C8.32917 127.222 8.26933 126.366 8.65682 126.352C8.68371 126.499 8.68603 126.667 8.68287 126.83C8.95979 126.842 9.03982 126.724 9.01168 126.592L8.88088 126.775C8.68948 126.343 7.43719 126.018 9.48556 126.367C9.8141 126.425 10.0929 126.61 10.4677 126.621C10.3582 126.528 9.95893 126.545 9.98121 126.365C10.0053 126.18 10.743 126.191 10.2722 125.892C9.58965 125.451 9.53759 126.245 9.47229 126.271C9.47637 126.273 9.48046 126.276 9.48454 126.279C8.88314 126.512 9.29899 125.592 9.25501 125.513C8.95248 125.004 8.50863 125.015 8.36179 124.399C8.27681 124.05 8.72416 123.508 8.77789 123.247C8.82826 122.987 8.30522 123.153 8.3137 122.963C8.32133 122.776 8.67674 122.729 8.68843 122.507C8.69231 122.412 8.31549 122.212 8.32193 122.169C8.38736 121.705 9.02883 122.382 9.17281 122.005C9.26396 121.762 8.95703 120.601 8.45234 121.01C8.51684 120.713 8.59421 120.442 8.67403 120.157C8.47559 120.255 8.31051 120.376 8.09575 120.457C8.53116 120.086 8.01051 119.519 8.12459 119.2C8.24147 118.875 9.15008 119.042 8.95601 118.51C8.53955 117.384 7.96589 119.291 7.70688 119.425C7.60552 119.477 7.17891 118.83 7.18903 118.771C7.23449 118.51 7.80555 118.491 7.87827 118.314C8.13757 117.674 7.77081 117 7.96856 116.37C8.64381 114.23 9.60315 111.713 10.4156 109.853C10.7204 109.159 11.5727 109.095 11.7104 108.783C12.0286 108.057 11.5065 107.684 11.7869 107.054C12.2005 106.121 13.3309 105.077 13.8072 104.36C14.1386 103.86 13.8093 103.119 13.8614 102.973C14.092 102.315 14.3602 101.625 14.6419 100.93C14.7033 100.826 14.8441 100.49 14.9136 100.391C15.6625 98.9097 16.5007 97.4507 17.1273 96.3553C17.5671 95.5861 18.375 95.5713 18.4485 95.4047C18.7676 94.687 18.1529 94.57 18.525 94.0526C18.726 93.7724 19.246 94.0056 19.2883 93.9772C19.6527 93.7256 19.0561 93.2815 19.1946 92.9988C19.9915 91.3723 21.293 90.1354 22.2627 88.6536C22.3334 88.5463 22.6087 88.7244 22.6369 88.6444C22.7512 88.2971 22.2235 88.1742 22.3827 87.8354C22.7116 87.1304 23.1947 86.4907 23.6703 85.8245C23.7177 85.7581 24.0977 85.9432 24.1933 85.784C24.2889 85.6245 24.0189 85.2984 24.1876 85.0604C24.6263 84.4408 25.4236 84.0387 25.8555 83.3662C25.9267 83.2542 25.5739 82.8554 25.6814 82.6858C26.0184 82.1537 26.8787 81.6075 27.1679 81.1516C28.103 79.6744 28.6747 78.1262 29.478 76.717C29.6699 76.3827 30.2452 76.3219 30.3526 76.1554C30.5935 75.7796 30.0396 75.8564 30.262 75.4593C32.052 72.2541 33.9966 69.0683 35.1606 66.0723C35.6214 64.9184 35.5676 63.3997 35.6944 63.1473C35.7578 63.0706 36.3629 63.1068 36.3743 63.1852C36.384 63.2865 36.2026 63.5123 36.0662 63.812C35.8196 63.6729 35.5678 63.5296 35.4322 63.2094C35.2097 62.6819 35.7594 61.8168 35.5208 61.2634C35.2819 60.7127 34.4723 60.7101 34.1561 60.1216C33.8965 59.6374 33.9398 58.8077 33.6588 58.2959C32.8669 56.8467 31.9981 55.4854 31.2513 54.587C28.418 50.8655 26.0946 47.1183 24.1134 43.1473C23.1006 41.1102 21.7011 39.052 21.1142 36.7058C21.0594 36.4851 21.8597 36.3728 21.3595 35.8683C21.0901 35.5981 20.2765 35.4978 19.7909 34.7932C19.1242 33.8253 18.5155 32.8065 17.9324 31.7659C15.9166 28.1831 14.269 24.2718 11.8586 21.056C7.0987 14.7047 -1.53755 11.5555 0.236309 1.7318C0.318233 1.24364 1.84111 0.184116 2.37168 -0.000100315C2.20272 0.382106 1.96977 0.798254 1.76677 1.21693C3.69922 -0.0676333 3.21208 0.282083 3.62557 1.11678C3.88026 1.63492 4.36437 0.664548 4.77049 0.721056C5.29592 0.789507 7.3359 1.53373 5.91334 2.19963C6.19196 2.12542 6.45791 2.05327 6.7299 1.98006C7.73252 2.88795 8.81948 3.68578 9.95306 4.47306C10.1494 4.60836 10.5406 4.33062 10.7417 4.47335C11.2839 4.85405 11.326 5.44337 11.7455 5.93621C11.9731 6.20437 12.4503 5.91799 12.6922 6.31265C12.9329 6.70667 12.3192 7.1344 13.3458 7.17007C13.8708 6.29011 14.3798 8.17232 14.7985 8.66851C14.8586 8.74044 15.9934 8.88726 16.1494 9.28006C16.3075 9.67201 16.2232 10.4934 16.8355 10.8408C17.1236 11.0047 17.7672 10.7809 17.9808 11.025C18.1308 11.1967 17.8034 11.7512 17.9457 12.0017C18.0881 12.2521 18.8314 12.4906 18.9029 12.5817C19.1604 12.9032 18.5662 12.7601 18.707 13.0036C19.391 14.1733 20.0835 15.5957 21.0502 16.5465C21.1693 16.6646 21.4453 16.207 21.471 16.2165C22.583 16.8142 21.7284 16.6687 21.5343 17.1581C21.3457 17.6286 22.7097 19.2744 23.417 18.8212C22.5726 19.4528 23.5065 19.4082 23.599 19.4925C23.9607 19.8247 23.1454 20.2427 23.637 20.4773C23.8162 20.563 24.1486 19.948 24.234 20.1107C24.4439 20.5115 23.8391 21.3923 24.0835 21.9455C24.1423 22.0795 24.5335 21.8726 24.6641 22.0992C24.7943 22.3254 24.9297 23.5167 25.4346 22.5914C25.1732 23.5517 25.5812 23.429 25.9809 24.0777C26.0784 24.2383 25.6218 24.8373 26.0288 25.0573C26.1662 25.1309 26.7367 24.7529 26.853 24.9205C27.0146 25.1516 26.9623 25.5048 26.9481 25.8568C26.9427 26.116 26.9585 26.3778 27.0883 26.5985C27.6674 27.5869 28.7432 28.3425 29.2298 29.4416C29.3615 29.7405 28.7369 30.04 28.9758 30.4432C29.0126 30.5014 29.8167 30.6612 29.9416 30.9654C30.0172 31.1484 30.1975 32.2244 30.2761 32.4141C30.4081 32.7273 31.0044 32.4261 30.9912 32.651C30.9538 33.3006 29.8968 33.456 31.3721 33.2907C30.8522 33.8614 31.1121 34.139 30.398 34.7226C31.3637 34.3781 30.6942 35.1254 31.2006 35.3055C31.7076 35.4858 33.5396 34.7575 31.8172 35.9431C32.1364 35.9765 32.9441 36.4587 33.0455 36.5622C33.3401 36.8683 32.7321 36.9835 32.9631 37.2085C33.0033 37.2487 33.3083 36.9909 33.4617 37.3129C33.5618 37.5247 34.4354 38.9804 34.4431 39.0947C34.5271 40.4019 33.7775 38.7659 33.2828 38.7785C33.3549 38.6818 33.4277 38.5853 33.4972 38.4867C33.386 37.9531 32.7809 38.671 32.7271 38.9776C32.6733 39.2839 33.2394 39.4424 33.0923 39.7609C33.0179 39.9201 32.0776 40.4342 32.0338 40.1184C31.9181 40.5571 31.3979 40.3787 31.1997 40.6468C30.9825 40.9413 31.6334 42.1862 32.1373 41.8795C32.0171 41.6476 31.8279 41.3822 31.7085 41.1441C32.3971 40.3107 35.9209 39.3528 35.2407 40.9017C34.7525 42.0279 33.462 41.4845 35.0555 42.4263C34.9556 42.1902 34.9227 41.9578 34.8375 41.7411C35.4759 41.3126 34.9567 42.0752 35.2668 42.1091C35.4171 42.1237 35.575 41.3522 35.9912 41.6743C35.2864 42.6176 36.3963 42.3064 36.7853 42.8955C36.5138 42.8334 36.2448 42.773 35.9734 42.7103C35.9423 44.152 34.2254 41.9297 35.1012 44.1475C34.919 43.9267 34.7787 43.6875 34.5809 43.4756C34.3137 43.8075 33.1949 44.2527 33.0496 44.4908C32.6678 45.1158 33.2602 45.3113 33.4238 45.6753C33.4961 45.8339 33.1691 45.9154 33.1754 45.9286C33.2733 46.1481 33.6404 45.8525 33.7779 46.0121C33.9494 46.2117 33.9782 47.0976 34.0881 47.1714C34.3714 47.3653 34.8613 46.4208 34.9362 46.4092C35.4206 46.3342 35.3345 46.8838 35.8137 46.5461C34.9314 45.9338 33.8413 43.2533 36.0411 44.9014C36.4566 43.7947 37.6672 43.269 38.2977 44.0593C38.8197 44.7091 38.0906 44.544 37.8448 45.2216C37.814 45.3079 38.1968 46.3946 38.5675 46.2169C37.761 46.6942 37.2729 47.4587 36.3307 47.7846C36.1913 47.8313 35.9835 47.4137 35.4237 47.9754C35.142 48.257 34.5631 48.9209 34.1281 49.1631C34.4701 49.0546 34.8502 48.9252 35.2045 48.8079C35.6765 49.3365 35.4249 49.6273 35.1074 50.3086C35.3197 50.1426 36.0557 49.2147 36.0754 49.8572C36.074 49.8916 35.752 50.1394 35.7404 50.4797C35.7226 51.1684 35.6903 51.3412 34.4613 51.6543C34.6948 51.7669 34.8488 51.8905 34.9524 52.0231C35.3184 52.4876 34.7838 53.1503 35.4586 53.6927C36.6877 52.765 36.1681 52.5913 35.4142 51.9879C35.6939 51.7516 35.9815 51.5339 36.2611 51.2912C36.2819 52.829 35.9861 52.2215 37.0095 52.4859C37.2629 52.5505 37.5712 53.5205 38.3174 52.737C38.4938 52.5493 38.1554 52.0029 38.5217 51.8766C38.5934 51.8499 39.1419 52.4599 39.0854 52.5698C38.4009 53.9084 36.9742 52.9262 38.3884 54.8108C38.4276 54.8638 38.8405 54.6949 38.9501 54.7844C39.1556 54.9543 38.6865 55.1698 38.8819 55.314C39.077 55.4573 39.8346 55.4562 39.3701 56.0046C38.5163 56.9865 37.3805 56.0161 37.6906 55.2298C36.253 55.6497 37.7884 59.4702 37.9607 59.7066C38.8756 60.5996 37.9366 58.9089 38.2924 58.6727C38.4464 58.5738 40.5807 57.7918 39.0257 57.8504C38.5671 57.8732 38.2428 58.6385 37.8909 58.3907C37.539 58.1454 38.213 58.0361 38.2473 57.995C38.3649 57.8546 37.9938 57.5894 38.0637 57.5101C39.1077 56.2588 41.1542 55.5048 38.5539 57.6576C39.3953 57.8143 40.0894 56.4176 40.7569 56.7673C41.5736 57.2089 40.7782 58.0565 40.7634 58.1514C40.5962 59.3245 41.6184 57.6747 41.5869 59.0547C41.5613 59.8168 40.2948 58.3739 40.9056 59.8761C41.4034 61.1396 41.6788 60.2867 42.85 60.0176C43.1235 59.9543 43.6839 60.5885 43.2492 59.6237C42.9434 59.6907 42.5354 59.7636 42.2418 59.7899C42.3818 59.4822 43.7254 58.581 43.731 58.429C43.7561 57.7004 43.0026 58.0039 43.7657 57.3045C42.8802 57.9257 43.3156 57.2763 43.0478 57.187C42.0599 56.8623 42.0853 57.768 42.5378 56.0419C42.1526 56.3986 41.7651 56.7271 41.374 57.0684C41.2975 56.915 41.221 56.765 41.1431 56.6125C42.056 55.9868 41.5742 55.1698 42.8969 55.5462C42.7998 54.4818 42.406 54.1852 41.5527 54.3237C41.3897 54.3506 41.2695 54.2369 41.1827 54.0825C40.9819 54.2103 40.3357 54.5478 40.2431 54.5596C39.4299 54.665 40.5013 53.7548 41.0245 53.6516C40.9943 53.5282 40.978 53.4261 40.9745 53.3894C40.9519 53.1544 41.5619 53.348 41.6295 53.116C41.6522 53.0389 41.2836 52.513 41.4468 52.4166C42.4966 51.8021 42.2201 53.1629 41.846 50.9044C40.8486 51.3877 41.5187 52.1463 40.3522 52.4601C39.111 52.8136 40.3586 51.5429 38.9372 52.1866C39.1409 52.0265 39.3186 51.9074 39.5549 51.7334C38.5631 51.3493 39.6699 50.6951 39.7776 50.317C39.8838 49.9625 39.604 49.2996 39.3022 49.0098C39.0882 48.8129 38.8651 48.8265 38.8109 49.3501C38.8006 49.5214 38.8093 49.7475 38.8324 50.0308C38.671 49.911 38.5251 49.777 38.3777 49.6502C38.2924 49.5791 38.2062 49.5082 38.1149 49.4412C39.9922 48.0721 39.3221 48.7391 38.8607 47.4219C38.7605 47.1321 39.5543 46.4824 38.3848 46.9137C39.3976 46.2896 38.3134 45.9524 38.3893 45.8039C38.8887 44.8559 41.04 45.7459 39.4349 47.1208C40.296 46.9336 39.4002 47.5412 39.7237 47.7617C40.0525 47.9856 40.2576 48.0236 40.2437 48.3576C40.2512 48.5187 40.2245 48.7428 40.1445 49.0541C40.6664 49.0503 40.6129 48.6461 40.4692 48.2013C40.3228 47.6194 40.038 46.9871 41.4141 47.3843C41.4647 47.3984 41.5174 47.4161 41.5721 47.4373C44.0297 48.6344 48.0153 55.7107 49.4657 59.9781C50.3658 63.2326 49.9249 64.6835 49.9006 65.5657C48.7402 72.568 47.55 74.3935 45.4786 78.5171C45.2803 78.9039 43.7983 81.8396 42.9865 80.6105C42.8734 80.4312 43.1052 78.9783 41.6387 79.5297C42.2842 79.6071 42.2876 80.4122 42.3132 80.496C42.9249 82.3573 43.603 81.8775 42.5768 83.715ZM29.4747 83.1532C31.0834 81.0172 29.3412 82.2545 27.9306 80.7824C27.7543 81.0702 27.5775 81.3585 27.3987 81.6491C27.5504 81.6348 27.7011 81.6214 27.8526 81.6072C27.8528 81.6069 27.853 81.6065 27.8532 81.6062C28.3945 82.1206 28.9335 82.639 29.4747 83.1532ZM7.13158 120.818C6.95597 120.6 6.77779 120.386 6.6111 120.163C6.8548 119.885 7.0937 119.614 7.33728 119.337C7.47027 119.46 7.60585 119.581 7.73895 119.703C7.52947 120.069 7.31837 120.437 7.13158 120.818ZM37.2848 55.0356C37.7281 54.302 36.5989 54.9058 36.8435 54.1021C36.0376 54.6034 35.2503 55.0966 34.4478 55.5853C34.7625 55.8987 35.1318 55.8343 35.125 56.362C35.3769 56.1828 35.6292 56.0006 35.882 55.8195C35.7883 55.7742 35.6848 55.7298 35.5987 55.6844C36.3093 55.1964 36.7678 55.8651 37.2873 55.0362C37.2864 55.036 37.2856 55.0358 37.2848 55.0356ZM34.5837 51.1927C34.5289 50.8957 34.307 49.7332 33.9017 49.8296C32.5088 50.1412 34.9378 52.2456 32.6826 51.0065C32.5333 51.1187 32.3755 51.2113 32.2219 51.3138C32.401 51.6999 32.5877 52.0779 32.7836 52.4582C33.3785 52.0257 33.987 51.6294 34.5837 51.1927ZM34.1506 74.8506C34.4332 74.5549 34.7826 72.5672 33.7461 72.7236C33.4486 72.7606 34.1035 74.0877 33.9037 74.3444C33.7746 74.5112 33.3069 73.9902 33.3227 74.4676C33.5868 74.5911 33.8753 74.7359 34.1494 74.8487C34.1498 74.8493 34.1502 74.85 34.1506 74.8506ZM37.1474 77.3725C37.2532 76.9379 37.3298 76.4876 37.421 76.0567C36.6142 75.968 36.7434 76.7374 35.7981 76.2599C35.7842 76.1188 35.7695 75.9796 35.7547 75.8394C36.0003 75.8726 36.2454 75.907 36.4903 75.9411C36.1591 75.3464 35.7996 75.4121 36.2715 74.8863C34.6633 74.498 33.8885 74.1326 34.7477 75.9283C34.0938 75.3164 31.5169 74.1358 32.9791 75.6647C33.2498 75.9499 33.7072 75.6428 33.764 75.6631C34.4514 75.9547 34.7301 76.4296 35.3839 76.697C35.6794 76.8185 35.8263 76.5428 36.2343 76.715C36.4331 76.7995 36.8257 77.3567 37.1474 77.3725ZM33.4477 76.2782C33.1175 75.947 31.9726 75.8083 31.9719 76.2501C31.9677 76.9412 33.3216 76.6084 33.4477 76.2782ZM7.13129 120.82C7.13139 120.819 7.13148 120.819 7.13158 120.818C7.13225 120.819 7.13291 120.819 7.13358 120.82C7.13282 120.82 7.13205 120.82 7.13129 120.82ZM34.896 52.5742C34.6601 52.5697 34.502 52.48 34.3409 52.4467C34.1651 52.384 33.9898 52.3737 33.7546 52.5572C33.7621 52.3576 33.767 52.157 33.7748 51.9566C33.6247 52.0609 33.4751 52.1666 33.3265 52.2699C33.4168 52.5027 33.5066 52.7336 33.5959 52.9628C33.6452 53.1347 33.6942 53.3123 33.7413 53.4932C34.1292 53.1922 34.5177 52.8891 34.896 52.5742ZM32.4438 48.1301C32.1756 47.6011 31.7487 48.4652 31.3428 48.5727C30.936 48.6792 30.9234 48.0581 30.475 48.4201C30.6437 48.7249 30.8246 49.0472 30.9997 49.3553C31.4713 48.9366 31.9699 48.5385 32.4431 48.1292C32.4434 48.1295 32.4436 48.1298 32.4438 48.1301ZM23.3254 92.1686C23.6827 91.9193 24.1416 92.3816 23.9083 91.3304C23.908 91.3309 23.9077 91.3314 23.9074 91.3319C23.0818 91.7063 22.1932 92.298 22.2027 93.2628C23.0326 93.1686 22.765 92.5626 23.3254 92.1686ZM36.1125 56.9524C36.6328 56.8925 36.7292 56.0748 36.2405 56.1286C35.4561 56.2218 35.3283 57.0492 36.1125 56.9524ZM19.4954 108.424C20.6116 109.643 22.6739 109.372 22.5245 107.95C22.5106 107.828 21.7312 108.322 21.5604 107.983C21.5435 107.95 21.7625 107.578 21.6136 107.392C21.4649 107.205 20.9678 107.09 20.8525 106.846C20.6513 106.419 21.5551 106.087 21.2151 105.681C21.1692 105.627 20.3877 105.726 20.3539 105.738C19.805 105.959 20.4141 106.706 20.3905 106.769C20.2698 107.092 19.6751 106.752 19.493 106.761C19.1499 106.779 19.2976 107.168 19.2686 107.176C18.5042 107.383 19.173 106.39 19.0186 106.138C18.6019 105.466 17.8761 105.559 17.9722 104.473C17.9815 104.37 18.5068 103.339 17.1977 104.335C16.9575 101.078 15.7763 105.244 15.8772 105.814C15.9297 106.078 16.6577 106.068 16.8646 106.313C17.3362 106.877 17.2176 107.389 18.0858 107.763C19.9123 108.548 19.0442 107.36 19.5458 107.087C19.9131 107.318 20.2839 107.517 20.6242 107.783C20.175 107.409 19.4105 108.336 19.4919 108.422C19.4931 108.423 19.4943 108.423 19.4954 108.424ZM20.8503 100.686C21.6985 100.408 20.5887 99.8241 21.5123 99.6543C20.8031 98.6298 20.3424 99.5832 20.2254 99.6611C19.6991 100.011 18.6414 99.3951 18.6836 100.084C19.4115 100.268 20.1274 100.489 20.8503 100.686ZM17.7186 105.7C17.3319 105.036 17.0083 105.74 16.8851 105.715C15.58 105.464 16.7929 103.496 17.7186 105.7ZM37.5589 73.8211C37.6994 73.6438 37.0955 73.4883 37.0253 73.2337C36.955 72.9771 37.7119 72.6375 37.3702 72.4745C37.0208 72.3275 35.6106 72.9272 35.9602 71.7743C35.7519 71.7149 35.6166 71.6308 35.4363 71.5615C35.285 71.8474 35.1282 72.132 34.9706 72.4228C35.5973 72.5446 36.2546 72.6752 36.8605 72.7903C37.2088 73.1784 36.6047 72.9862 36.6003 72.9947C36.6009 72.995 36.6015 72.9953 36.602 72.9956C36.4864 73.3259 37.242 74.2215 37.5589 73.8211ZM27.1823 88.0287C28.4525 88.8683 27.2673 87.5413 27.2167 87.259C27.1668 86.9769 27.8023 87.012 27.1835 86.7711C26.6169 86.8381 27.0406 87.9349 27.184 88.0297C27.1834 88.0293 27.1829 88.029 27.1823 88.0287ZM22.6453 97.5672C22.6059 96.9025 22.2203 96.7781 22.9535 96.4198C22.6231 96.2564 22.2857 96.089 21.96 95.9286C21.6797 96.392 22.6202 96.898 21.9351 97.2206C21.8223 97.2733 21.1961 96.6545 21.2002 97.1919C21.6612 97.3046 22.166 97.4413 22.6453 97.5672ZM22.8629 94.5054C22.5864 95.0838 24.8936 97.0283 24.333 95.3385C24.2486 95.0872 23.0702 94.0706 22.8629 94.5054ZM34.8418 78.9392C35.4416 78.0561 34.4285 78.8695 33.892 78.8858C34.7954 76.5556 33.8665 79.1877 32.417 78.6531C32.6423 79.1305 33.2182 80.1142 33.7614 79.7025C33.987 79.531 33.5475 79.3869 33.5568 79.3746C33.8977 79.0055 34.5117 79.4242 34.8418 78.9392ZM20.3465 101.725C20.3472 101.678 19.868 101.482 19.843 101.317C19.8192 101.152 20.2774 101.072 20.0174 100.892C19.7564 100.709 19.2485 101.108 19.3602 101.381C19.474 101.655 20.3367 102.146 20.3465 101.725ZM23.5104 98.7481C23.4619 98.0964 21.3827 97.9074 21.3299 98.0166C20.8951 98.965 23.009 98.4174 23.5104 98.7481ZM36.3775 82.7143C36.2034 81.0979 34.276 81.0948 33.0045 81.2896C33.1267 81.4837 33.2475 81.6806 33.3683 81.8732C32.5445 80.8329 31.9169 79.4874 31.8963 81.6564C32.6699 80.9105 32.5192 81.8253 32.5756 81.8667C34.4773 83.1119 34.341 81.2534 36.3769 82.7153C36.3771 82.715 36.3773 82.7146 36.3775 82.7143ZM18.9397 103.2C18.7184 103.707 18.4597 105.186 19.6421 104.992C19.4119 104.391 19.1764 103.796 18.9397 103.2ZM44.5806 62.0045C44.7112 61.7761 44.78 61.545 44.7979 61.3137C44.8915 60.9399 44.7831 60.6143 44.6369 60.2237C44.0022 60.9693 43.8109 60.6615 43.567 60.5521C43.1992 60.3852 43.4103 60.9957 43.3569 61.0132C42.6031 61.2243 42.3744 60.8711 42.6512 61.7508C42.3263 61.6075 41.9996 61.4701 41.6759 61.3328C41.7735 61.7312 41.6568 61.9991 41.447 62.2724C41.2849 62.4071 41.0705 62.5333 40.833 62.6694C42.2814 62.1535 41.4305 62.6184 42.1907 63.0363C42.5738 63.3043 44.3814 62.5024 44.5801 62.0019C44.5803 62.0028 44.5804 62.0036 44.5806 62.0045ZM37.318 81.6985C37.1459 81.4473 36.8874 81.1523 36.6802 80.8833C36.7253 80.7446 36.7733 80.6078 36.8177 80.4698C37.0371 80.5748 37.2647 80.6878 37.4774 80.7856C37.6316 80.6579 37.302 80.5541 37.3019 80.4901C37.303 80.4908 37.3042 80.4914 37.3053 80.4921C37.3071 79.5837 37.5132 79.3201 38.4729 79.1409C37.8242 78.7783 37.1755 78.4157 36.5268 78.0531C36.5209 78.2089 36.5123 78.3655 36.504 78.5213C36.8157 78.7818 37.1272 79.0431 37.4383 79.3045C37.1665 79.3382 36.8947 79.3747 36.6252 79.4036C36.6871 79.5858 36.7421 79.795 36.8085 79.9613C34.6868 79.4905 36.6297 78.9274 35.888 78.485C35.406 78.2134 34.7117 79.4856 34.9336 79.8653C34.9667 79.9201 36.4688 80.4102 35.4989 80.4814C35.3456 80.4933 32.4337 78.8452 34.4927 80.6982C34.7841 80.9622 36.7289 81.752 37.318 81.6985ZM40.9083 77.4827C38.6276 77.212 42.0795 75.5407 39.8987 75.8939C39.2047 75.1018 39.182 75.1728 38.2353 75.0953C38.1509 75.0876 38.0327 74.7331 37.9919 74.7366C37.4044 74.8188 37.4291 75.3135 36.656 74.9028C36.6523 75.0086 36.6464 75.1073 36.6421 75.2137C37.5584 75.251 37.7429 76.0791 38.2388 76.624C38.4629 76.872 38.6701 76.6939 38.8682 76.9076C38.9404 76.986 38.5924 77.2048 38.8386 77.3564C39.3974 77.696 40.2806 77.9213 40.8893 77.8081C40.8899 77.8084 40.8904 77.8087 40.891 77.809C40.9007 77.7009 40.9008 77.5911 40.9083 77.4827ZM30.4038 91.9954C29.3164 91.5079 28.735 91.8191 28.7975 90.5895C28.57 90.5157 28.3433 90.4444 28.1157 90.3707C28.0391 90.5384 27.9651 90.7015 27.8858 90.8701C30.59 93.1393 26.6919 91.9918 29.1481 92.7023C29.4153 92.7793 29.3804 92.253 29.7866 92.9952C29.7874 92.9951 29.7883 92.9949 29.7892 92.9947C29.9041 92.3668 29.5828 92.0873 30.4038 91.9954ZM31.7551 88.1353C30.3273 85.6725 29.5841 89.0572 30.4327 88.9257C30.5096 88.9138 30.7766 87.4264 31.7551 88.1353ZM27.9519 98.7372C28.3004 98.2298 27.1649 97.5113 26.7165 97.3192C26.2669 97.1264 26.4722 97.7437 26.3786 97.7523C26.0703 97.7793 26.1202 97.3664 25.7043 97.3924C25.5686 97.4013 24.6098 98.089 24.6349 98.1613C24.7738 98.5602 25.9329 98.7739 26.0028 98.9058C26.2331 99.3358 25.561 99.3435 26.0331 99.704C27.0395 100.474 26.223 99.2542 26.26 99.1488C26.3745 98.8349 26.9709 99.2175 27.2176 99.077C27.4643 98.9363 27.3358 98.6763 27.4889 98.515C27.5398 98.4615 27.9322 98.7618 27.9519 98.7372ZM26.5473 95.5379C27.0929 96.6112 28.8449 95.8262 28.7358 95.5449C28.4086 94.7116 26.2879 95.0235 26.5473 95.5379ZM37.0667 77.7743C37.4232 78.6506 38.6197 77.7258 38.5481 77.2343C38.2455 77.1506 36.942 77.4776 37.0667 77.7743ZM36.1912 83.0267C36.2672 82.4398 34.469 82.2283 34.2641 82.63C35.0718 83.4107 35.0118 83.0852 35.1997 82.8523C35.3875 82.6201 36.1326 83.4823 36.1912 83.0267ZM23.572 103.905C23.6431 103.81 23.7839 101.733 22.9257 102.486C22.8619 102.54 22.3493 103.776 22.4497 103.942C22.6489 104.282 23.3826 104.143 23.572 103.905ZM36.2553 86.102C35.5899 85.3722 35.7442 85.1354 34.6551 84.7998C34.6549 84.8002 34.6547 84.8005 34.6545 84.8008C34.7309 84.0032 36.7025 85.1236 36.7415 84.9617C36.876 84.3963 35.2178 84.0326 34.936 83.4653C34.9575 84.413 34.1359 83.6627 33.7686 84.15C33.6869 84.2593 33.9679 85.0613 34.2751 85.3372C34.5829 85.6127 35.7712 85.9894 36.2553 86.102ZM22.6516 106.27C23.2546 105.831 22.1064 104.664 21.5152 105.366C21.2246 105.709 22.2859 106.533 22.6516 106.27ZM38.5321 47.4143C38.252 47.717 37.9752 48.0216 37.703 48.3289C37.4935 48.1915 37.2799 48.0504 37.0682 47.9108C37.2758 47.9936 37.4839 48.08 37.6905 48.1634C37.563 47.722 38.0598 47.1509 38.5315 47.4133C38.5317 47.4136 38.5319 47.4139 38.5321 47.4143ZM30.4509 34.0267C30.6744 33.6543 29.4524 33.9549 29.3993 34.0463C29.0056 34.7297 30.141 34.5429 30.4509 34.0267ZM40.6769 78.7533C41.1838 78.1752 39.2296 77.696 38.8934 78.0305C39.3546 77.9638 40.3878 79.0819 40.6769 78.7533ZM33.2828 38.7785C33.1753 38.9225 33.068 39.0669 32.9644 39.2177C33.0401 38.8984 33.1518 38.7818 33.2828 38.7785ZM25.2154 104.487C25.4005 104.462 25.9088 103.814 25.8033 103.626C25.5792 103.235 24.3299 103.259 24.4321 103.751C24.4421 103.805 25.031 104.51 25.2162 104.485C25.216 104.486 25.2157 104.486 25.2154 104.487ZM38.6125 46.1892C38.5976 46.2006 38.5824 46.2098 38.5675 46.2169C38.5825 46.208 38.5973 46.1979 38.6125 46.1892ZM23.4877 18.7669C23.465 18.7873 23.4413 18.8058 23.417 18.8212C23.4396 18.8042 23.4625 18.7849 23.4877 18.7669ZM29.5282 100.309C31.2642 101.012 30.7325 99.9724 29.691 99.9352C29.6354 99.9348 29.5649 100.253 29.5282 100.309Z" fill="black"/>
</svg>
