<svg viewBox="0 0 981 603" fill="none" xmlns="http://www.w3.org/2000/svg">
<path d="M981 603H0V0H981V603ZM24 521C19.5817 521 16 524.582 16 529V586C16 590.418 19.5817 594 24 594H76C80.4183 594 84 590.418 84 586V529C84 524.582 80.4183 521 76 521H24ZM104 521C99.5817 521 96 524.582 96 529V586C96 590.418 99.5817 594 104 594H156C160.418 594 164 590.418 164 586V529C164 524.582 160.418 521 156 521H104ZM184 521C179.582 521 176 524.582 176 529V586C176 590.418 179.582 594 184 594H236C240.418 594 244 590.418 244 586V529C244 524.582 240.418 521 236 521H184ZM264 521C259.582 521 256 524.582 256 529V586C256 590.418 259.582 594 264 594H316C320.418 594 324 590.418 324 586V529C324 524.582 320.418 521 316 521H264ZM344 521C339.582 521 336 524.582 336 529V586C336 590.418 339.582 594 344 594H396C400.418 594 404 590.418 404 586V529C404 524.582 400.418 521 396 521H344ZM424 521C419.582 521 416 524.582 416 529V586C416 590.418 419.582 594 424 594H476C480.418 594 484 590.418 484 586V529C484 524.582 480.418 521 476 521H424ZM504 521C499.582 521 496 524.582 496 529V586C496 590.418 499.582 594 504 594H556C560.418 594 564 590.418 564 586V529C564 524.582 560.418 521 556 521H504ZM584 521C579.582 521 576 524.582 576 529V586C576 590.418 579.582 594 584 594H636C640.418 594 644 590.418 644 586V529C644 524.582 640.418 521 636 521H584ZM664 521C659.582 521 656 524.582 656 529V586C656 590.418 659.582 594 664 594H716C720.418 594 724 590.418 724 586V529C724 524.582 720.418 521 716 521H664ZM744 521C739.582 521 736 524.582 736 529V586C736 590.418 739.582 594 744 594H796C800.418 594 804 590.418 804 586V529C804 524.582 800.418 521 796 521H744ZM824 521C819.582 521 816 524.582 816 529V586C816 590.418 819.582 594 824 594H876C880.418 594 884 590.418 884 586V529C884 524.582 880.418 521 876 521H824ZM904 521C899.582 521 896 524.582 896 529V586C896 590.418 899.582 594 904 594H956C960.418 594 964 590.418 964 586V529C964 524.582 960.418 521 956 521H904ZM24 10C19.5817 10 16 13.5817 16 18V75C16 79.4183 19.5817 83 24 83H76C80.4183 83 84 79.4183 84 75V18C84 13.5817 80.4183 10 76 10H24ZM104 10C99.5817 10 96 13.5817 96 18V75C96 79.4183 99.5817 83 104 83H156C160.418 83 164 79.4183 164 75V18C164 13.5817 160.418 10 156 10H104ZM184 10C179.582 10 176 13.5817 176 18V75C176 79.4183 179.582 83 184 83H236C240.418 83 244 79.4183 244 75V18C244 13.5817 240.418 10 236 10H184ZM264 10C259.582 10 256 13.5817 256 18V75C256 79.4183 259.582 83 264 83H316C320.418 83 324 79.4183 324 75V18C324 13.5817 320.418 10 316 10H264ZM344 10C339.582 10 336 13.5817 336 18V75C336 79.4183 339.582 83 344 83H396C400.418 83 404 79.4183 404 75V18C404 13.5817 400.418 10 396 10H344ZM424 10C419.582 10 416 13.5817 416 18V75C416 79.4183 419.582 83 424 83H476C480.418 83 484 79.4183 484 75V18C484 13.5817 480.418 10 476 10H424ZM504 10C499.582 10 496 13.5817 496 18V75C496 79.4183 499.582 83 504 83H556C560.418 83 564 79.4183 564 75V18C564 13.5817 560.418 10 556 10H504ZM584 10C579.582 10 576 13.5817 576 18V75C576 79.4183 579.582 83 584 83H636C640.418 83 644 79.4183 644 75V18C644 13.5817 640.418 10 636 10H584ZM664 10C659.582 10 656 13.5817 656 18V75C656 79.4183 659.582 83 664 83H716C720.418 83 724 79.4183 724 75V18C724 13.5817 720.418 10 716 10H664ZM744 10C739.582 10 736 13.5817 736 18V75C736 79.4183 739.582 83 744 83H796C800.418 83 804 79.4183 804 75V18C804 13.5817 800.418 10 796 10H744ZM824 10C819.582 10 816 13.5817 816 18V75C816 79.4183 819.582 83 824 83H876C880.418 83 884 79.4183 884 75V18C884 13.5817 880.418 10 876 10H824ZM904 10C899.582 10 896 13.5817 896 18V75C896 79.4183 899.582 83 904 83H956C960.418 83 964 79.4183 964 75V18C964 13.5817 960.418 10 956 10H904Z" fill="url(#paint0_radial_1_20151)"/>
<defs>
<radialGradient id="paint0_radial_1_20151" cx="0" cy="0" r="1" gradientUnits="userSpaceOnUse" gradientTransform="translate(490.5 301.5) rotate(-180) scale(608.5 989.948)">
<stop/>
<stop offset="0.5" stop-color="#252729" stop-opacity="0.5"/>
<stop offset="1" stop-color="#81888F" stop-opacity="0"/>
</radialGradient>
</defs>
</svg>
