<svg viewBox="0 0 121 187" fill="none" xmlns="http://www.w3.org/2000/svg">
                        <path d="M36.0251 110.259L39.1217 104.896C39.8907 103.519 40.8919 102.285 42.082 101.25C43.1179 100.339 44.3486 99.6763 45.6803 99.3129C47.0119 98.9495 48.4093 98.8951 49.7657 99.1537C51.3139 99.4428 52.7985 100.005 54.1502 100.814C55.5263 101.58 56.7552 102.585 57.7798 103.781C58.6819 104.826 59.3334 106.063 59.6845 107.398C60.0356 108.733 60.0771 110.13 59.8058 111.483C59.505 113.032 58.9378 114.516 58.1294 115.87L55.0327 121.233L36.0251 110.259ZM54.9487 119.94L57.6141 115.323C58.3601 114.075 58.8818 112.706 59.1558 111.278C59.4009 110.021 59.3575 108.724 59.0291 107.486C58.7007 106.247 58.0957 105.099 57.2596 104.127C56.31 103.019 55.1711 102.087 53.8959 101.376C52.6346 100.624 51.2536 100.095 49.8133 99.8113C48.5531 99.5686 47.2552 99.6057 46.0114 99.92C44.7704 100.252 43.6194 100.856 42.6424 101.69C41.5234 102.642 40.5823 103.784 39.8626 105.065L37.1936 109.688L54.9491 119.939L54.9487 119.94ZM58.1327 100.033C59.4612 100.818 61.0055 101.16 62.5408 101.007C64.076 100.854 65.5218 100.215 66.6674 99.1825C67.3017 98.6321 67.8441 97.9841 68.2743 97.263C68.9875 96.0564 69.3532 94.6759 69.331 93.2741C69.3013 91.8672 68.8447 90.5022 68.0218 89.3597L68.4819 88.5628C69.0048 89.2512 69.4129 90.0194 69.6905 90.8378C69.9473 91.5971 70.0901 92.3901 70.1143 93.1911C70.1331 93.9751 70.0344 94.7574 69.8213 95.512C69.6122 96.271 69.3072 97.0001 68.9135 97.6817C68.3552 98.6753 67.6065 99.5491 66.7101 100.253C65.8773 100.904 64.9206 101.378 63.8983 101.647C62.8737 101.912 61.8067 101.973 60.7582 101.827C59.6491 101.673 58.5811 101.302 57.616 100.734L57.6471 100.752C56.6613 100.196 55.7981 99.4463 55.1094 98.5482C54.4617 97.7049 53.9853 96.7433 53.7068 95.7174C53.4335 94.688 53.371 93.6142 53.5231 92.5604C53.6855 91.4477 54.0646 90.3778 54.639 89.4112C55.1542 88.5148 55.8286 87.7198 56.6291 87.065C57.418 86.4173 58.3208 85.9223 59.2914 85.6052C60.2854 85.2852 61.3337 85.1678 62.3743 85.26C63.5055 85.3619 64.6053 85.6878 65.6097 86.2187L65.9816 86.4669L58.1327 100.033ZM64.9607 86.7666C64.1267 86.328 63.2059 86.0798 62.2646 86.0397C61.3328 85.994 60.4004 86.1149 59.5114 86.3967C58.6275 86.677 57.8023 87.1161 57.0764 87.6926C56.3532 88.259 55.7595 88.9733 55.3349 89.7877C54.8566 90.6068 54.5351 91.5077 54.3868 92.4446C54.2412 93.3477 54.2621 94.27 54.4486 95.1658C54.637 96.0577 54.9934 96.9057 55.4988 97.6648C56.0271 98.4597 56.7128 99.1381 57.5135 99.658L64.9607 86.7666ZM70.4311 85.9274C71.5132 86.5521 72.5381 86.7107 73.5048 86.4029C74.4913 86.0789 75.3147 85.3874 75.8039 84.4721C76.08 84.0112 76.2552 83.497 76.3179 82.9633C76.397 82.2393 76.2556 81.508 75.912 80.8653C75.5685 80.2226 75.0389 79.6983 74.3925 79.3612C74.0062 79.1243 73.5768 78.9665 73.1291 78.8969C72.6814 78.8272 72.2244 78.8472 71.7847 78.9556C70.9975 79.1873 70.1683 79.7837 69.2975 80.7447C68.8828 81.1377 68.4549 81.5165 68.0145 81.8805C67.6328 82.2012 67.203 82.46 66.7408 82.6475C66.2974 82.8227 65.8209 82.8989 65.3447 82.8709C64.7756 82.8197 64.2248 82.6434 63.7317 82.3546C63.2167 82.0697 62.7686 81.6779 62.4174 81.2056C62.1078 80.7843 61.8905 80.3025 61.7795 79.7918C61.6733 79.284 61.6705 78.7602 61.7713 78.2515C61.8805 77.7049 62.0807 77.1806 62.3634 76.7004C62.6311 76.2278 62.978 75.8047 63.389 75.4495C63.7751 75.1156 64.2255 74.8644 64.7129 74.7111C65.2076 74.5606 65.7287 74.5164 66.2419 74.5814C66.8329 74.6625 67.4011 74.8636 67.9117 75.1721L67.5021 75.8816C67.0614 75.6179 66.5711 75.448 66.0619 75.3824C65.643 75.3271 65.2172 75.3646 64.8146 75.4922C64.4321 75.6237 64.0833 75.8375 63.7926 76.1185C63.4944 76.4018 63.2383 76.7265 63.0324 77.0826C62.7823 77.469 62.6127 77.9018 62.5336 78.3553C62.4545 78.8088 62.4676 79.2736 62.5721 79.722C62.6786 80.1382 62.8749 80.5261 63.1474 80.8585C63.4199 81.1908 63.7619 81.4595 64.1494 81.6455C64.9807 82.0814 65.7279 82.164 66.3909 81.8937C67.2232 81.5103 67.9769 80.9758 68.6137 80.3172C68.986 79.9457 69.3756 79.5743 69.7812 79.2024C70.1734 78.8396 70.624 78.5455 71.114 78.3323C71.6253 78.1163 72.1765 78.0103 72.7317 78.0212C73.4294 78.0556 74.1096 78.2522 74.7182 78.5955C75.2709 78.8641 75.7561 79.2535 76.138 79.7348C76.5035 80.2002 76.7765 80.7313 76.9422 81.2992C77.1102 81.8741 77.1592 82.4772 77.0863 83.0716C77.0072 83.6995 76.7995 84.3044 76.4763 84.8484C76.1598 85.3988 75.7456 85.8869 75.2541 86.2888C74.7795 86.6816 74.2337 86.9795 73.6465 87.1661C73.0654 87.3499 72.4511 87.4046 71.8465 87.3263C71.1962 87.2395 70.5747 87.0029 70.0311 86.6352L70.4311 85.9274ZM64.0392 67.4943L63.6798 68.1168L61.1869 66.6776L61.5464 66.055L64.0392 67.4943ZM80.5543 77.0293L80.1949 77.6518L66.4842 69.7359L66.8436 69.1134L80.5543 77.0293ZM84.5346 73.7323C85.0217 73.7722 85.5114 73.7673 85.9975 73.7177C86.6155 73.6547 87.2193 73.4932 87.786 73.2392C88.6157 72.9143 89.379 72.4408 90.0386 71.8419C90.624 71.3196 91.1266 70.7112 91.5291 70.0378C91.9889 69.2366 92.2885 68.3536 92.4112 67.4378C92.5443 66.5098 92.4945 65.5646 92.2645 64.6553C92.0201 63.7147 91.5974 62.8295 91.0194 62.0478C90.3168 61.2253 89.5504 60.4594 88.7273 59.7573L86.649 58.5574L86.604 58.6354C87.4291 59.8574 87.8869 61.2899 87.9229 62.7632C87.9379 64.3262 87.5147 65.8618 86.7014 67.1961C86.1027 68.265 85.2831 69.1941 84.297 69.9215C83.4133 70.5728 82.4091 71.0427 81.3424 71.304C80.3141 71.5512 79.2465 71.5896 78.2027 71.417C77.1468 71.2469 76.131 70.8842 75.206 70.347C74.273 69.8086 73.4489 69.1006 72.7761 68.2595C72.0968 67.4213 71.5935 66.455 71.2961 65.4183C70.9988 64.3816 70.9135 63.2958 71.0454 62.2257C71.1935 61.0214 71.5915 59.8614 72.214 58.82C72.6608 58.0302 73.2311 57.317 73.9033 56.7073C74.5017 56.1642 75.1709 55.7045 75.8928 55.3407C76.5363 55.0189 77.225 54.7964 77.9354 54.681C78.544 54.5741 79.1657 54.5635 79.7778 54.6494L79.8085 54.5962L76.381 52.6173L76.7404 51.9948L88.9614 59.0506C89.7876 59.6019 90.5474 60.2467 91.2257 60.9723C91.7836 61.5914 92.2434 62.2922 92.5891 63.0503C92.8936 63.7269 93.0937 64.4456 93.1827 65.1819C93.2639 65.8604 93.2723 66.5455 93.2076 67.2256C93.1509 67.8303 93.0255 68.4264 92.8338 69.0025C92.6846 69.4624 92.4919 69.907 92.2582 70.3303C91.8609 71.0177 91.3745 71.6497 90.8116 72.2098C90.2434 72.7762 89.5988 73.2605 88.8965 73.6486C88.1868 74.0425 87.4237 74.3317 86.631 74.5071C85.7856 74.6981 84.9105 74.7191 84.0566 74.5689L84.5346 73.7323ZM83.2208 56.7157C82.3331 56.1903 81.3487 55.8493 80.3264 55.713C79.3733 55.5843 78.4043 55.644 77.4745 55.8885C76.5526 56.1377 75.6897 56.568 74.9364 57.1544C74.1384 57.774 73.4712 58.5455 72.9733 59.4243C72.4615 60.2937 72.1229 61.254 71.9762 62.2523C71.8361 63.1991 71.8797 64.1642 72.1048 65.0949C72.3383 66.0325 72.7601 66.913 73.3446 67.6828C73.9787 68.5175 74.7775 69.2132 75.6915 69.7267C76.4855 70.1802 77.3517 70.4936 78.2519 70.6532C79.2047 70.8323 80.1837 70.8164 81.1298 70.6064C82.0759 70.3964 82.9694 69.9967 83.7562 69.4315C84.6911 68.7489 85.4634 67.8683 86.018 66.8524C86.5424 65.9686 86.8757 64.9846 86.9962 63.9638C87.1068 63.0139 87.0261 62.0513 86.7587 61.1327C86.4914 60.2142 86.0428 59.3583 85.4395 58.6154C84.8253 57.849 84.0727 57.2046 83.2208 56.7157ZM81.8694 49.5644L81.9 49.5115C81.5269 49.0214 81.2618 48.458 81.1221 47.8583C80.9749 47.2426 80.9208 46.6084 80.9617 45.9768C81.0049 45.3292 81.1285 44.6897 81.3296 44.0727C81.5282 43.4579 81.7998 42.8691 82.1386 42.3189C83.1522 40.5634 84.4269 39.3941 85.9626 38.8115C87.8333 38.1235 89.9997 38.4902 92.4612 39.9113L99.5971 44.0312L99.2376 44.6537L92.024 40.4889C91.0364 39.8801 89.9457 39.4572 88.806 39.2411C87.9421 39.0891 87.0545 39.1459 86.2174 39.4067C85.4438 39.6563 84.7387 40.0819 84.1578 40.6501C83.5763 41.2198 83.0758 41.8665 82.6702 42.5722C81.7026 44.3294 81.4025 45.9814 81.7703 47.5275C82.1382 49.0736 83.1825 50.3418 84.9039 51.3329L92.7689 55.8737L92.4094 56.4963L78.6987 48.5804L79.0581 47.9578L81.8694 49.5644ZM101.582 40.6076L82.5744 29.6333L88.146 19.983L90.0157 21.0625L85.5226 28.8449L92.066 32.6228L96.3794 25.152L98.249 26.2314L93.9357 33.7023L102.661 38.7397L101.582 40.6076ZM108.132 29.2638L94.1094 21.168L95.1877 19.3005L97.3689 20.5598L97.3978 20.5099C97.0069 20.0189 96.7046 19.4637 96.5042 18.8692C96.3455 18.3301 96.3056 17.7632 96.3874 17.2075C96.5246 16.4511 96.7746 15.7196 97.1292 15.0377L99.1765 16.2196C98.7649 17.0759 98.577 18.0226 98.6304 18.9715C98.7018 19.8259 99.0357 20.6377 99.5862 21.2957C100.101 21.944 100.731 22.493 101.443 22.9155L109.208 27.3987L108.131 29.2636L108.132 29.2638ZM106.331 -9.74509e-05L120.353 8.09567L119.275 9.96324L116.782 8.52383L116.758 8.56462C117.027 9.1298 117.235 9.72161 117.38 10.3303C117.53 11.1758 117.535 12.0406 117.395 12.8876C117.222 13.8902 116.864 14.8517 116.34 15.7231C115.591 17.0801 114.492 18.2113 113.156 18.9989C111.882 19.7398 110.42 20.0978 108.947 20.0302C107.482 19.9937 106.05 19.5944 104.777 18.8679C103.498 18.1284 102.433 17.0688 101.687 15.7935C100.91 14.5059 100.518 13.0233 100.556 11.5207C100.581 10.003 100.996 8.51767 101.762 7.20756C102.232 6.37331 102.845 5.62846 103.573 5.00721C104.226 4.45002 104.977 4.01951 105.789 3.73775C106.412 3.51996 107.063 3.38865 107.722 3.3475L107.751 3.29755L105.258 1.85831L106.331 -9.74509e-05ZM105.804 17.1825C106.802 17.7649 107.93 18.0877 109.085 18.1214C110.249 18.1596 111.398 17.8566 112.392 17.2498C113.399 16.6525 114.236 15.8062 114.821 14.7923C115.406 13.7783 115.721 12.6307 115.735 11.4597C115.751 10.3008 115.44 9.1605 114.838 8.16948C114.244 7.1621 113.398 6.32618 112.384 5.7437C111.359 5.15006 110.198 4.83027 109.014 4.81514C107.844 4.78108 106.688 5.07558 105.677 5.66524C104.678 6.24121 103.85 7.07229 103.277 8.07348C102.972 8.59854 102.74 9.16281 102.587 9.7507C102.44 10.3306 102.363 10.9265 102.361 11.525C102.365 12.1857 102.471 12.8419 102.675 13.4706C102.918 14.2134 103.301 14.9027 103.805 15.5006C104.362 16.1797 105.04 16.7499 105.804 17.1825ZM5.93276 146.549L40.5208 166.518L60.4705 131.964L25.8824 111.995L5.93276 146.549ZM28.5689 131.809L22.6379 142.081L26.6889 144.42L32.2605 134.77L37.8693 138.008L32.2977 147.659L41.3343 152.876L37.3804 159.724L13.0752 145.692L22.9601 128.57L28.5689 131.809ZM17.2786 186.72L0.000138998 176.744C1.75744 179.771 4.2777 182.285 7.30951 184.035C10.3413 185.786 13.7787 186.711 17.2786 186.72Z" fill="#FF9D7D" />
                    </svg>